<svg xmlns="http://www.w3.org/2000/svg" viewBox="0 0 911.69 147.97">
  <defs>
    <style>
      .a, .d {
        fill: #fff;
      }

      .a {
        stroke: #fbb03b;
      }

      .a, .b {
        stroke-miterlimit: 10;
      }

      .b {
        fill: none;
        stroke: #ee4036;
        stroke-width: 4.88px;
      }

      .c {
        fill: #ee4036;
      }

      .e, .f {
        font-size: 15.28px;
        fill: #231f20;
        font-family: TrendSansOne, Trend Sans;
      }

      .e {
        letter-spacing: -0.06em;
      }

      .f {
        letter-spacing: -0.06em;
      }
    </style>
  </defs>
  <g>
    <rect class="a" x="2.42" y="2.71" width="906" height="143"/>
    <rect class="b" x="2.44" y="2.44" width="906.82" height="143.09"/>
    <rect class="c" x="8.86" y="8.81" width="893.98" height="130.35"/>
  </g>
  <g>
    <path class="d" d="M185.17,121.75h-12l-.29-39.6-21.27,40.19h-4.22L126,82.84l-.2,38.91H113.91l2-69.2h5.39l28.62,50.19,27.94-50.19h5.39Z" transform="translate(-23.08 -23.93)"/>
    <path class="d" d="M218,121.75H205.27l32.35-69.49h2.74l32.35,69.49h-13L253.59,108H224Zm10.3-23.43h21L238.79,74.61Z" transform="translate(-23.08 -23.93)"/>
    <path class="d" d="M349.72,85.58v29.51s-10.29,7.84-26.66,7.84c-23.32,0-38.81-15.29-38.81-35.68,0-19.9,16.76-35.58,37.15-35.58,15.39,0,24.3,5.59,24.3,5.59l-4.21,10.39s-8.92-4.51-18-4.51c-16.18,0-26.08,10.19-26.08,24.31,0,13.82,10.59,24,24.9,24A46.53,46.53,0,0,0,338,108.72V96.47H318.75V85.58Z" transform="translate(-23.08 -23.93)"/>
    <path class="d" d="M375.61,52.85h12.15v68.9H375.61Z" transform="translate(-23.08 -23.93)"/>
    <path class="d" d="M415.38,52.46h3.82l42.63,44.4v-44H474v69.39h-3.24L427.53,79v42.74H415.38Z" transform="translate(-23.08 -23.93)"/>
    <path class="d" d="M505.82,121.75H493.08l32.34-69.49h2.75l32.34,69.49h-13L541.4,108H511.8Zm10.29-23.43h21L526.6,74.61Z" transform="translate(-23.08 -23.93)"/>
    <path class="d" d="M563.07,52.85H621V64H598.36v57.73H586.1V64h-23Z" transform="translate(-23.08 -23.93)"/>
    <path class="d" d="M641.89,52.85H654v68.9H641.89Z" transform="translate(-23.08 -23.93)"/>
    <path class="d" d="M711.9,51.67c21.37,0,36.86,15,36.86,35.58,0,20.29-15.78,35.58-36.86,35.58s-36.75-15.19-36.75-35.58C675.15,67.35,691.22,51.67,711.9,51.67Zm.1,60.48c13.33,0,23.72-10.69,23.72-24.7s-9.9-24.8-23.72-24.8c-13.62,0-23.72,10.68-23.72,24.8C688.28,101.27,698.67,112.15,712,112.15Z" transform="translate(-23.08 -23.93)"/>
    <path class="d" d="M769.86,54.46h3.82l42.64,44.4v-44h12.15v69.39h-3.23L782,81v42.74H769.86Z" transform="translate(-23.08 -23.93)"/>
    <path class="d" d="M873.53,124.93A44.58,44.58,0,0,1,851,118.36l4.22-11c5.68,3.82,12.54,6.17,18.72,6.17,8.14,0,11.86-4,11.86-8.43,0-4.61-2.55-7.35-15-12-13.44-4.9-18-11.27-18-19.5,0-10.39,8.43-20,23.13-20a40.65,40.65,0,0,1,19,4.7L891,69.15c-4-2.25-10.1-4.6-15.39-4.6-7.26,0-10.59,4-10.59,8.82,0,4.41,3.73,7.16,13.43,10.68,15.39,6,19.8,12.06,19.8,21.08C898.23,117.38,888.92,124.93,873.53,124.93Z" transform="translate(-23.08 -23.93)"/>
    <text class="e" transform="translate(498.71 121.42) scale(0.96 1)">JOURNAL OF CROSS-CULTURAL IMAGE STUDIES</text>
    <text class="f" transform="translate(73.02 121.86) scale(0.96 1)">REVUE D'ÉTUDES INTERCULTURELLES DE L'IMAGE</text>
    <rect class="d" x="481.59" y="114.44" width="4.33" height="4.32"/>
    <g>
      <polygon class="d" points="37.59 52.21 37.3 52.21 37.31 51.84 53.61 28.24 54.02 28.46 37.59 52.21"/>
      <polygon class="d" points="49.92 51.93 49.33 51.9 65.92 28.65 66.3 29.06 49.92 51.93"/>
      <path class="d" d="M76.68,52.19h12.7V122.7H76.68Z" transform="translate(-23.08 -23.93)"/>
      <path d="M60.38,75.75h12.7v70.51H60.38Z" transform="translate(-23.08 -23.93)"/>
      <polygon class="d" points="37.71 122.36 37.3 122.34 37.3 122.06 53.72 98.27 54.12 98.56 37.71 122.36"/>
      <polygon class="d" points="50 122.34 49.36 122.36 65.92 98.46 66.3 98.78 50 122.34"/>
    </g>
  </g>
</svg>
